/vscmnt/brussel_pixiu_data/_data_brussel/112/vsc11236/PredSimResults/SUBJ04opt3D/expIG/worker_05.mot
version=1
nRows=8
nColumns=50
inDegrees=yes
endheader
                time	         pelvis_tilt	         pelvis_list	     pelvis_rotation	           pelvis_tx	           pelvis_ty	           pelvis_tz	       hip_flexion_r	     hip_adduction_r	      hip_rotation_r	        knee_angle_r	       ankle_angle_r	         mtp_angle_r	       hip_flexion_l	     hip_adduction_l	      hip_rotation_l	        knee_angle_l	       ankle_angle_l	         mtp_angle_l	    lumbar_extension	      lumbar_bending	     lumbar_rotation	 ercspn_r/activation	 intobl_r/activation	 extobl_r/activation	    abd_r/activation	    add_r/activation	hamstrings_r/activation	bifemsh_r/activation	glut_max_r/activation	iliopsoas_r/activation	rect_fem_r/activation	  vasti_r/activation	gastroc_r/activation	 soleus_r/activation	tib_ant_r/activation	 ercspn_l/activation	 intobl_l/activation	 extobl_l/activation	    abd_l/activation	    add_l/activation	hamstrings_l/activation	bifemsh_l/activation	glut_max_l/activation	iliopsoas_l/activation	rect_fem_l/activation	  vasti_l/activation	gastroc_l/activation	 soleus_l/activation	tib_ant_l/activation	
          0.63487269	         -2.45784251	         -0.50013158	         -8.69116465	          0.63487269	          0.87908554	          0.01052961	        -13.23704844	         -0.63027526	         -7.94084890	         -8.96224200	         11.68870077	         23.91429289	         29.98060681	         -3.58294704	        -10.51476119	        -12.36567812	          4.30640015	          0.23858120	        -13.36256397	          2.85468721	          8.23306387	          0.05103222	          0.01000003	          0.01000004	          0.04644556	          0.01000056	          0.02541308	          0.16216182	          0.01468058	          0.01268001	          0.01000096	          0.01000021	          0.23188108	          0.25668994	          0.01000002	          0.04571474	          0.21730134	          0.01568936	          0.01000006	          0.31125823	          0.06210737	          0.02786617	          0.05822686	          0.15183073	          0.03108106	          0.03002690	          0.01467592	          0.01766714	          0.32989684	
          0.64757015	         -2.53605127	         -0.45982243	         -8.45132349	          0.65119738	          0.87698733	          0.01006227	        -13.85452073	         -0.81123425	         -8.60816119	         -9.70896256	         11.21352619	         25.42804071	         29.72259004	         -3.41872782	        -10.61494316	        -13.60386032	          4.02441180	          0.22535473	        -12.85239391	          2.25154183	          8.33371316	          0.04639642	          0.01000001	          0.01000011	          0.03833331	          0.01000040	          0.02097484	          0.13383848	          0.01211646	          0.02154958	          0.01000027	          0.01000010	          0.19138041	          0.24186160	          0.01000001	          0.03773021	          0.20612124	          0.01294904	          0.03655902	          0.25689350	          0.06230249	          0.02299944	          0.05632971	          0.12531174	          0.02565241	          0.04817786	          0.01211646	          0.01458145	          0.36228693	
          0.66026760	         -2.59956032	         -0.37468229	         -8.15952305	          0.66776299	          0.87515363	          0.00949243	        -14.34004423	         -1.05829764	         -9.30775463	        -10.74453131	         10.63885619	         26.96697028	         29.37772888	         -3.22289707	        -10.75393396	        -14.67131324	          3.54782520	          0.21413107	        -12.32837729	          1.58443995	          8.39495251	          0.04932438	          0.01000001	          0.01000005	          0.03163796	          0.01000024	          0.01731194	          0.11046210	          0.01000020	          0.01778610	          0.01000043	          0.01000010	          0.15795361	          0.22504364	          0.01000002	          0.03438666	          0.17011979	          0.01068736	          0.05614899	          0.22143298	          0.06446671	          0.01898276	          0.04649131	          0.10342460	          0.02117194	          0.11875253	          0.01000029	          0.01203466	          0.39716841	
          0.67296505	         -2.64945052	         -0.25512320	         -7.82010510	          0.68439504	          0.87377290	          0.00880616	        -14.62015984	         -1.37355740	        -10.03894903	        -12.17090584	          9.91111196	         28.54428506	         28.96954643	         -2.99472960	        -10.98084213	        -15.64481250	          3.12561052	          0.18916243	        -11.81552117	          0.86908290	          8.41480239	          0.07405516	          0.01000002	          0.01000005	          0.02611203	          0.01000033	          0.01429049	          0.09116865	          0.01000007	          0.01467967	          0.01000030	          0.01000014	          0.13036519	          0.18955653	          0.01000001	          0.04080329	          0.14040640	          0.01000006	          0.09034783	          0.20223249	          0.06635118	          0.01566758	          0.03837128	          0.08536030	          0.01747403	          0.18597595	          0.01000030	          0.01000011	          0.41818216	
          0.68566251	         -2.68707296	         -0.09817361	         -7.44745297	          0.70093191	          0.87303904	          0.00800230	        -14.61934491	         -1.77957791	        -10.79207894	        -14.08965245	          8.98676546	         30.13267284	         28.48853518	         -2.72036442	        -11.24823166	        -16.53469474	          2.94293545	          0.16330043	        -11.33148613	          0.10805386	          8.39685975	          0.11147644	          0.01000003	          0.01000005	          0.02155126	          0.01000057	          0.04065553	          0.07524502	          0.01000013	          0.01211582	          0.01000017	          0.01673743	          0.10759540	          0.15644830	          0.01000001	          0.03596693	          0.11588280	          0.01000010	          0.12391810	          0.17529265	          0.06525351	          0.01293137	          0.04303981	          0.07045114	          0.01442202	          0.23337487	          0.01000054	          0.01000047	          0.41999280	
          0.69835996	         -2.71400446	          0.09401113	         -7.05553315	          0.71720134	          0.87311411	          0.00708359	        -14.27925931	         -2.29345325	        -11.55357683	        -16.56333098	          7.80723618	         31.67499497	         27.94315998	         -2.38603428	        -11.46902929	        -17.33220901	          2.99579717	          0.14281063	        -10.89416943	         -0.68986599	          8.34774541	          0.12016074	          0.01000010	          0.01000005	          0.01778709	          0.07485874	          0.08161647	          0.06210264	          0.01098854	          0.01000026	          0.01000011	          0.01468044	          0.08880262	          0.12912279	          0.01000001	          0.03428563	          0.09564253	          0.01000018	          0.14037161	          0.18086482	          0.06800046	          0.01067342	          0.03552309	          0.05814604	          0.01190309	          0.25363728	          0.01000029	          0.01000015	          0.40564000	
          0.71105741	         -2.73138443	          0.29954443	         -6.65410992	          0.73309598	          0.87401716	          0.00606887	        -13.56214798	         -2.90960111	        -12.32022798	        -19.63113267	          6.33546918	         33.06132729	         27.32361362	         -2.00445782	        -11.59732714	        -18.00101058	          3.24426604	          0.13759033	        -10.51617979	         -1.49699901	          8.27149001	          0.11899576	          0.01410620	          0.01000005	          0.01468037	          0.15351278	          0.09037221	          0.05125574	          0.01000018	          0.01000025	          0.01000006	          0.01211636	          0.07329221	          0.10657000	          0.01000002	          0.02829940	          0.07893746	          0.01000037	          0.14627829	          0.18604460	          0.07306547	          0.01000384	          0.02931897	          0.04799016	          0.01000010	          0.26891574	          0.01000058	          0.01000042	          0.37205322	
          0.72375487	         -2.73992633	          0.48438453	         -6.24884447	          0.74855663	          0.87567193	          0.00498097	        -12.45377231	         -3.60930716	        -13.10471447	        -23.30652885	          4.64625705	         33.94250082	         26.59639867	         -1.60363799	        -11.61971184	        -18.46436350	          3.61519671	          0.17502742	        -10.20614475	         -2.27254388	          8.16794335	          0.11689915	          0.02709449	          0.01000005	          0.01211628	          0.18818052	          0.07459016	          0.04230340	          0.01000006	          0.01000026	          0.01000004	          0.01000013	          0.06049088	          0.08795632	          0.02470326	          0.02335670	          0.06515012	          0.01000035	          0.14699414	          0.17697155	          0.07739811	          0.01000215	          0.02915489	          0.03960813	          0.01000012	          0.26810636	          0.01000079	          0.01000071	          0.33895149	
